<?xml version="1.0" encoding="UTF-8"?>
<svg width="173px" height="26px" viewBox="0 0 173 26" version="1.1" xmlns="http://www.w3.org/2000/svg" xmlns:xlink="http://www.w3.org/1999/xlink">
    <!-- Generator: Sketch 44.1 (41455) - http://www.bohemiancoding.com/sketch -->
    <title>KrampLogo</title>
    <desc>Created with Sketch.</desc>
    <defs></defs>
    <g id="Marketing-2017" stroke="none" stroke-width="1" fill="none" fill-rule="evenodd">
        <g id="KRAMP_logo_RGB-Copy-5" fill="#FFFFFF">
            <polyline id="Fill-1" points="51.5950261 4.80962773 56.4743947 4.80962773 56.4743947 10.6561524 58.760151 10.6561524 64.9150298 4.80962773 71.552615 4.80962773 62.9363824 12.5904646 72.5636082 20.7232437 65.6622532 20.7232437 58.6286397 14.6129492 56.4743947 14.6129492 56.4743947 20.7232437 51.5950261 20.7232437 51.5950261 4.80962773"></polyline>
            <path d="M79.7070636,12.6343017 L87.7733398,12.6343017 C89.092189,12.6343017 89.5761407,12.1072602 89.5761407,10.9640084 L89.5761407,10.4367178 C89.5761407,9.02994529 88.8725053,8.76617544 87.3339724,8.76617544 L79.7070636,8.76617544 L79.7070636,12.6343017 L79.7070636,12.6343017 Z M74.8274459,4.80962773 L89.5539731,4.80962773 C93.3125066,4.80962773 94.3232507,6.67793521 94.3232507,9.53531736 L94.3232507,10.5463106 C94.3232507,12.6783879 93.8397972,13.9317306 91.5981271,14.4590212 L91.5981271,14.5026092 C93.0484877,14.7666281 94.2577441,15.4040097 94.2577441,18.0195405 L94.2577441,20.7232437 L89.3781265,20.7232437 L89.3781265,18.8108501 C89.3781265,17.1403077 88.8944239,16.5908494 87.3780586,16.5908494 L79.7070636,16.5908494 L79.7070636,20.7232437 L74.8274459,20.7232437 L74.8274459,4.80962773 L74.8274459,4.80962773 Z" id="Fill-2"></path>
            <path d="M105.203321,14.4811888 L111.445874,14.4811888 L108.280138,8.50215652 L105.203321,14.4811888 L105.203321,14.4811888 Z M105.115149,4.80962773 L111.467295,4.80962773 L120.215288,20.7232437 L114.786959,20.7232437 L113.270345,17.9094496 L103.3791,17.9094496 L101.95016,20.7232437 L96.4999124,20.7232437 L105.115149,4.80962773 L105.115149,4.80962773 Z" id="Fill-3"></path>
            <polyline id="Fill-4" points="122.3917 4.80962773 129.88635 4.80962773 135.403599 15.0520675 140.920598 4.80962773 148.415248 4.80962773 148.415248 20.7232437 143.667889 20.7232437 143.667889 9.29346606 143.623554 9.29346606 137.22782 20.7232437 133.579377 20.7232437 127.182647 9.29346606 127.139059 9.29346606 127.139059 20.7232437 122.3917 20.7232437 122.3917 4.80962773"></polyline>
            <path d="M157.909966,12.7663112 L165.493536,12.7663112 C166.636539,12.7663112 167.075906,12.0190878 167.075906,11.0740993 L167.075906,10.4583873 C167.075906,9.38138935 166.548616,8.76617544 165.075589,8.76617544 L157.909966,8.76617544 L157.909966,12.7663112 L157.909966,12.7663112 Z M153.030847,4.80962773 L166.328932,4.80962773 C170.9662,4.80962773 172.087284,7.13971925 172.087284,10.2606222 L172.087284,11.6235576 C172.087284,13.9974862 171.054373,16.723108 167.603944,16.723108 L157.909966,16.723108 L157.909966,20.7232437 L153.030847,20.7232437 L153.030847,4.80962773 L153.030847,4.80962773 Z" id="Fill-5"></path>
            <polyline id="Fill-6" points="37.550963 4.78347491 22.1153209 4.78347491 13.7374525 11.6566845 27.6736664 11.6566845 37.550963 4.78347491"></polyline>
            <polyline id="Fill-7" points="37.5691454 20.6853844 22.1327561 20.6853844 13.7571294 13.812673 27.6918488 13.812673 37.5691454 20.6853844"></polyline>
            <polygon id="Fill-8" points="0 11.6564354 13.5645948 11.6564354 13.5645948 4.78347491 0 4.78347491"></polygon>
            <polygon id="Fill-9" points="0 20.6853844 13.5645948 20.6853844 13.5645948 13.812673 0 13.812673"></polygon>
            <g id="Group-13">
                <polygon id="Fill-10" points="0 2.62300309 38.0177285 2.62300309 38.0177285 0.0585324969 0 0.0585324969"></polygon>
                <polygon id="Fill-12" points="0 25.3906499 38.0177285 25.3906499 38.0177285 22.8401275 0 22.8401275"></polygon>
            </g>
        </g>
    </g>
</svg>
